<?xml version="1.0" encoding="UTF-8"?>
<svg id="Layer_2" xmlns="http://www.w3.org/2000/svg" xmlns:xlink="http://www.w3.org/1999/xlink" viewBox="0 0 113.73 113.73">
  <defs>
    <style>
      .cls-1 {
        fill: url(#linear-gradient-4);
        stroke: url(#linear-gradient-5);
      }

      .cls-1, .cls-2, .cls-3 {
        stroke-miterlimit: 10;
        stroke-width: 2px;
      }

      .cls-2 {
        fill: url(#linear-gradient-2);
        stroke: url(#linear-gradient-3);
      }

      .cls-3 {
        fill: url(#linear-gradient-6);
        stroke: url(#linear-gradient-7);
      }

      .cls-4 {
        fill: url(#linear-gradient);
      }
    </style>
    <linearGradient id="linear-gradient" x1="-5.66" y1="27.8" x2="122.51" y2="87.38" gradientUnits="userSpaceOnUse">
      <stop offset="0" stop-color="#00ffda"/>
      <stop offset="1" stop-color="#00ff8b"/>
    </linearGradient>
    <linearGradient id="linear-gradient-2" x1="31.87" y1="33.06" x2="81.86" y2="33.06" gradientUnits="userSpaceOnUse">
      <stop offset="0" stop-color="#fff"/>
      <stop offset="1" stop-color="#fff"/>
    </linearGradient>
    <linearGradient id="linear-gradient-3" x1="30.87" y1="33.03" x2="82.86" y2="33.03" gradientUnits="userSpaceOnUse">
      <stop offset="0" stop-color="#fff"/>
      <stop offset="1" stop-color="#fff"/>
    </linearGradient>
    <linearGradient id="linear-gradient-4" y1="60.07" x2="75.88" y2="60.07" xlink:href="#linear-gradient-2"/>
    <linearGradient id="linear-gradient-5" y1="60.11" x2="76.88" y2="60.11" xlink:href="#linear-gradient-3"/>
    <linearGradient id="linear-gradient-6" x1="31.87" y1="87.48" x2="59.15" y2="87.48" xlink:href="#linear-gradient-2"/>
    <linearGradient id="linear-gradient-7" x1="30.87" y1="87.52" x2="60.15" y2="87.52" xlink:href="#linear-gradient-3"/>
  </defs>
  <g id="Layer_1-2" data-name="Layer_1">
    <g>
      <rect class="cls-4" width="113.73" height="113.73" rx="17.97" ry="17.97"/>
      <g>
        <path class="cls-2" d="M57.79,52.09l-10.58-3.97-3.92-1.47-8.09-3.03c-1.92-.72-3.32-2.52-3.33-4.57,0-.01,0-.02,0-.04,0-3.04,1.67-5.97,4.58-7.42l33.45-16.68c4.1-2.04,9.06-.37,11.09,3.72.6,1.18.88,2.45.88,3.69,0,3.04-1.69,5.97-4.59,7.41l-33.45,16.68c-.18.09-.36.16-.54.25"/>
        <path class="cls-1" d="M49.96,42.54l10.58,3.97,3.92,1.47,8.09,3.03c1.92.72,3.32,2.52,3.33,4.57,0,.01,0,.02,0,.04,0,3.04-1.67,5.97-4.58,7.42l-27.46,13.69c-4.1,2.04-9.06.37-11.09-3.72-.6-1.18-.88-2.45-.88-3.69,0-3.04,1.69-5.97,4.59-7.41l27.46-13.69c.18-.09.36-.16.54-.25"/>
        <path class="cls-3" d="M43.08,75.26l6.56,2.76,2.43,1.03,5.02,2.11c1.19.5,2.06,1.75,2.06,3.19,0,0,0,.02,0,.03,0,2.12-1.04,4.16-2.84,5.17l-17.02,9.54c-2.54,1.42-5.61.26-6.88-2.59-.37-.82-.54-1.7-.54-2.57,0-2.12,1.04-4.16,2.84-5.16l17.02-9.54c.11-.07.22-.11.33-.17"/>
      </g>
    </g>
  </g>
</svg>