<?xml version="1.0" encoding="UTF-8"?>
<svg id="Layer_2" xmlns="http://www.w3.org/2000/svg" xmlns:xlink="http://www.w3.org/1999/xlink" viewBox="0 0 322.27 97.47">
  <defs>
    <style>
      .cls-1 {
        fill: url(#linear-gradient-5);
        stroke: url(#linear-gradient-6);
      }

      .cls-1, .cls-2, .cls-3 {
        stroke-miterlimit: 10;
        stroke-width: 2px;
      }

      .cls-2 {
        fill: url(#linear-gradient-3);
        stroke: url(#linear-gradient-4);
      }

      .cls-3 {
        fill: url(#linear-gradient);
        stroke: url(#linear-gradient-2);
      }
    </style>
    <linearGradient id="linear-gradient" x1="1" y1="22.2" x2="56.72" y2="22.2" gradientUnits="userSpaceOnUse">
      <stop offset="0" stop-color="#00ffda"/>
      <stop offset="1" stop-color="#00ff8b"/>
    </linearGradient>
    <linearGradient id="linear-gradient-2" x1="0" y1="22.17" x2="57.72" y2="22.17" gradientUnits="userSpaceOnUse">
      <stop offset="0" stop-color="#00ffda"/>
      <stop offset="1" stop-color="#00ff8b"/>
    </linearGradient>
    <linearGradient id="linear-gradient-3" y1="52.31" x2="50.05" y2="52.31" xlink:href="#linear-gradient"/>
    <linearGradient id="linear-gradient-4" y1="52.34" x2="51.05" y2="52.34" xlink:href="#linear-gradient-2"/>
    <linearGradient id="linear-gradient-5" x1="1" y1="82.85" x2="31.4" y2="82.85" xlink:href="#linear-gradient"/>
    <linearGradient id="linear-gradient-6" x1="0" y1="82.89" x2="32.4" y2="82.89" xlink:href="#linear-gradient-2"/>
  </defs>
  <g id="Layer_1-2" data-name="Layer_1">
    <g>
      <polygon points="274.13 68.98 273.7 69.3 273.93 68.98 274.13 68.98"/>
      <polygon points="273.85 69.41 273.78 69.41 273.7 69.3 273.85 69.41"/>
      <rect x="310.85" y="48.58" width="11.42" height="42.01"/>
      <rect x="310.85" y="34.76" width="11.42" height="8.17"/>
      <g>
        <path d="M111.23,90.59v-41.86h31.27c.71.07,3.35.42,5.53,2.67,2.06,2.13,2.39,4.6,2.47,5.34v14.45h-12.91v-11.23h-13.52v30.62h-12.82Z"/>
        <path d="M304.5,48.58h-12.98l-13.11,17.72h-4.87l-13.11-17.72h-12.98l15.54,21.01-15.54,21.01h12.98l13.28-17.94h4.53l13.28,17.94h12.98l-15.54-21.01,15.54-21.01ZM276.12,69.69h-.06l-.08-.11-.23-.32h.66l-.42.32.15.11Z"/>
        <path d="M67.33,54.8v-11.18h37.54v11.18h-37.54ZM78.13,90.59v-52.03c0-3.7.83-7,2.48-9.92,1.65-2.92,3.97-5.22,6.95-6.91,2.98-1.69,6.48-2.53,10.5-2.53,3.05,0,5.67.5,7.88,1.51,2.2,1.01,4.21,2.48,6.03,4.42l-8.17,8.07c-.65-.71-1.41-1.26-2.29-1.65-.88-.39-1.96-.58-3.26-.58-2.33,0-4.13.63-5.4,1.9-1.26,1.26-1.9,3.06-1.9,5.4v52.32h-12.84Z"/>
        <g>
          <path d="M178.42,90.88c-4.08,0-7.75-.93-11.01-2.81-3.27-1.87-5.85-4.41-7.75-7.62-1.9-3.21-2.85-6.83-2.85-10.85s.95-7.52,2.85-10.68c1.9-3.15,4.48-5.67,7.75-7.54,3.27-1.87,6.94-2.81,11.01-2.81s7.83.92,11.1,2.76,5.86,4.36,7.79,7.54,2.89,6.76,2.89,10.72-.95,7.57-2.85,10.81c-1.9,3.24-4.5,5.79-7.79,7.66-3.3,1.87-7.01,2.81-11.14,2.81ZM178.42,80.57c2.07,0,3.9-.47,5.49-1.42,1.59-.95,2.82-2.23,3.69-3.85.87-1.62,1.3-3.49,1.3-5.61s-.46-3.99-1.38-5.61c-.92-1.62-2.15-2.89-3.69-3.81-1.54-.92-3.34-1.38-5.4-1.38s-3.8.46-5.36,1.38-2.78,2.19-3.64,3.81c-.87,1.62-1.3,3.49-1.3,5.61s.43,3.99,1.3,5.61c.87,1.62,2.08,2.9,3.64,3.85,1.56.95,3.35,1.42,5.36,1.42Z"/>
          <path d="M226.08,90.88c-4.08,0-7.75-.93-11.01-2.81-3.27-1.87-5.85-4.41-7.75-7.62-1.9-3.21-2.85-6.83-2.85-10.85s.95-7.52,2.85-10.68c1.9-3.15,4.48-5.67,7.75-7.54,3.27-1.87,6.94-2.81,11.01-2.81s7.83.92,11.1,2.76,5.86,4.36,7.79,7.54,2.89,6.76,2.89,10.72-.95,7.57-2.85,10.81c-1.9,3.24-4.5,5.79-7.79,7.66-3.3,1.87-7.01,2.81-11.14,2.81ZM226.08,80.57c2.07,0,3.9-.47,5.49-1.42,1.59-.95,2.82-2.23,3.69-3.85.87-1.62,1.3-3.49,1.3-5.61s-.46-3.99-1.38-5.61c-.92-1.62-2.15-2.89-3.69-3.81-1.54-.92-3.34-1.38-5.4-1.38s-3.8.46-5.36,1.38-2.78,2.19-3.64,3.81c-.87,1.62-1.3,3.49-1.3,5.61s.43,3.99,1.3,5.61c.87,1.62,2.08,2.9,3.64,3.85,1.56.95,3.35,1.42,5.36,1.42Z"/>
        </g>
        <g>
          <path class="cls-3" d="M29.89,43.41l-11.79-4.42-4.37-1.64-9.02-3.38c-2.14-.8-3.7-2.81-3.71-5.09,0-.01,0-.03,0-.04,0-3.39,1.87-6.65,5.1-8.27L43.38,1.97c4.56-2.27,10.09-.42,12.36,4.15.67,1.32.98,2.73.98,4.11,0,3.39-1.88,6.65-5.11,8.26L14.33,37.07c-.2.1-.4.18-.6.27"/>
          <path class="cls-2" d="M21.16,32.77l11.79,4.42,4.37,1.64,9.02,3.38c2.14.8,3.7,2.81,3.71,5.09,0,.01,0,.03,0,.04,0,3.39-1.87,6.65-5.1,8.27l-30.61,15.26c-4.56,2.27-10.09.42-12.36-4.15-.67-1.32-.98-2.73-.98-4.11,0-3.39,1.88-6.65,5.11-8.26l30.61-15.26c.2-.1.4-.18.6-.27"/>
          <path class="cls-1" d="M13.5,69.23l7.31,3.08,2.71,1.15,5.59,2.36c1.33.56,2.29,1.96,2.3,3.55,0,0,0,.02,0,.03,0,2.36-1.16,4.64-3.16,5.76l-18.97,10.64c-2.83,1.58-6.26.29-7.66-2.89-.41-.92-.61-1.9-.61-2.86,0-2.36,1.16-4.64,3.17-5.75l18.97-10.64c.12-.07.25-.13.37-.19"/>
        </g>
      </g>
    </g>
  </g>
</svg>