<?xml version="1.0" encoding="UTF-8"?>
<svg id="Layer_2" xmlns="http://www.w3.org/2000/svg" xmlns:xlink="http://www.w3.org/1999/xlink" viewBox="0 0 521.34 688.83">
  <defs>
    <style>
      .cls-1 {
        fill: url(#linear-gradient-2);
      }

      .cls-2 {
        fill: url(#linear-gradient);
      }
    </style>
    <linearGradient id="linear-gradient" x1="0" y1="262.42" x2="521.34" y2="262.42" gradientUnits="userSpaceOnUse">
      <stop offset="0" stop-color="#0168fd"/>
      <stop offset=".51" stop-color="#0da9fd"/>
      <stop offset="1" stop-color="aqua"/>
    </linearGradient>
    <linearGradient id="linear-gradient-2" x1=".06" y1="556.14" x2="224.12" y2="556.14" xlink:href="#linear-gradient"/>
  </defs>
  <g id="Layer_1-2" data-name="Layer_1">
    <g>
      <path class="cls-2" d="M521.27,155.89c-.96-16.28-10.63-30.53-26.53-39.08-3.71-2-7.49-3.84-11.15-5.63-1.56-.76-3.13-1.53-4.68-2.3-19.79-9.85-39.57-19.71-59.35-29.57-47.46-23.65-96.53-48.11-144.87-72.02-19.42-9.61-40.83-9.72-58.75-.3-17.52,9.21-29.28,26.38-32.27,47.11-2.15,14.91-1.77,29.9-1.39,44.4.19,7.51.4,15.29.22,22.82v.17c-.13,4.97,1.75,8.44,5.6,10.33,6.03,2.95,12.05,5.91,18.16,8.91l14.48,7.11,2.17-8.8c.12-.51.23-.88.31-1.16.22-.79.5-1.78.5-3.07l.02-10.68c.03-18.59.05-37.19.03-55.78-.01-11.31,3.63-19.81,10.27-23.92,6.6-4.09,15.76-3.59,25.8,1.41l214.11,106.59c4.44,2.21,6.11,4.39,6.2,5.59.09,1.24-1.31,3.73-5.55,6.65-9.5,6.56-19.02,13.09-28.54,19.63-23.78,16.32-48.37,33.21-72.3,50.21-10.98,7.8-20.39,8.5-32.5,2.4-70.12-35.32-141.58-70.89-210.68-105.28l-39.93-19.88c-10.03-5-20.86-7.08-32.16-6.19C24.81,108.21.33,135.53.25,170.52c-.05,20.67,0,41.67.04,61.98.08,35.91.15,73.04-.28,109.53-.37,31.46,13.28,53.51,41.72,67.41,71.19,34.79,142.43,70.51,215.23,107.09,11.02,5.54,21.84,8.3,32.43,8.3,13.16,0,25.93-4.28,38.22-12.82,16.77-11.66,33.87-23.46,50.4-34.88,17.51-12.09,35.62-24.58,53.38-36.95,15.51-10.79,23.69-26.47,22.45-43.01-1.24-16.58-11.7-30.91-28.7-39.3-30.28-14.96-60.56-29.92-90.84-44.89l-43-21.27c-28.15-13.92-56.29-27.85-84.45-41.75-8.58-4.23-14.25-2.72-17.51-.7-3.11,1.93-6.83,6.04-6.85,14.67-.06,26.98-.06,53.97-.06,80.95,0,16.83,0,33.66-.01,50.49,0,2.51,0,9.19,7.17,12.56,5.34,2.51,10.69,5.18,16.36,8.01,2.37,1.18,4.81,2.4,7.34,3.65l10.54,5.22v-121.28l26.99,13.46c51.68,25.76,105.11,52.4,157.61,78.69,2.56,1.28,4.16,2.97,4.27,4.52.12,1.62-1.29,3.62-3.77,5.33-16.9,11.72-33.82,23.4-50.74,35.08-18.5,12.77-37,25.54-55.47,38.36-8.22,5.71-16.36,6.21-25.62,1.59l-65.44-32.67c-51.94-25.93-103.88-51.86-155.85-77.74-10.24-5.1-14.55-12.18-14.42-23.69.23-20.39.18-41.1.13-61.13-.02-8.37-.04-16.74-.04-25.11,0-9.01-.02-18.01-.03-27.02-.04-20.57-.07-41.83.08-62.73.07-9.23,3.86-16.82,10.4-20.84,6.41-3.94,14.66-3.91,22.65.06,15.44,7.68,30.88,15.37,46.3,23.08,19.71,9.84,39.41,19.7,59.12,29.55,48.36,24.19,98.36,49.19,147.63,73.63,22.05,10.94,44.46,9.36,64.8-4.55,41.9-28.66,76.05-52.27,107.49-74.29,14.5-10.16,22.28-25.2,21.33-41.26Z"/>
      <path class="cls-1" d="M216.92,525.18c-5.36-2.57-10.78-5.28-16.51-8.14-2.38-1.19-4.83-2.41-7.39-3.68l-10.55-5.24v21.55c0,7.2,0,13.94,0,20.67-.01,7.78-2.93,13.58-8.91,17.74-35.21,24.46-71.11,49.21-105.82,73.14l-5.76,3.97c-4.25,2.93-8.18,3.26-12.74,1.07-4.71-2.27-7.85-5.67-7.82-14.86.05-17.98-.01-36.25-.07-53.92-.13-36.85-.26-74.95.64-112.35.38-15.78-2.34-32.88-25.44-40.13l-.65-.2c-3.7-1.17-7.9-2.49-11.8.38C.03,428.18.05,433.28.06,436.34c.2,56.24.23,118.16.11,194.86-.04,23.64,9.68,40.8,28.89,50.98,8.38,4.44,16.95,6.65,25.54,6.65,11.28,0,22.61-3.82,33.55-11.43,8.86-6.16,17.7-12.36,26.54-18.55,24.35-17.08,49.53-34.74,74.82-51.18,25.48-16.57,36.7-39.84,34.29-71.18-.21-2.7-.64-8.33-6.88-11.32Z"/>
    </g>
  </g>
</svg>