<?xml version="1.0" encoding="UTF-8"?>
<svg id="Layer_2" xmlns="http://www.w3.org/2000/svg" xmlns:xlink="http://www.w3.org/1999/xlink" viewBox="0 0 543.98 161.87">
  <defs>
    <style>
      .cls-1 {
        fill: url(#linear-gradient-2);
      }

      .cls-2 {
        letter-spacing: -.02em;
      }

      .cls-3 {
        font-family: Conthrax-SemiBold, Conthrax;
        font-size: 95.32px;
        font-weight: 600;
      }

      .cls-4 {
        fill: url(#linear-gradient);
      }
    </style>
    <linearGradient id="linear-gradient" x1="0" y1="61.67" x2="122.51" y2="61.67" gradientUnits="userSpaceOnUse">
      <stop offset="0" stop-color="#0168fd"/>
      <stop offset=".51" stop-color="#0da9fd"/>
      <stop offset="1" stop-color="aqua"/>
    </linearGradient>
    <linearGradient id="linear-gradient-2" x1=".01" y1="130.69" x2="52.67" y2="130.69" xlink:href="#linear-gradient"/>
  </defs>
  <g id="Layer_1-2" data-name="Layer_1">
    <g>
      <g>
        <path class="cls-4" d="M122.49,36.63c-.22-3.83-2.5-7.17-6.23-9.18-.87-.47-1.76-.9-2.62-1.32-.37-.18-.73-.36-1.1-.54-4.65-2.31-9.3-4.63-13.95-6.95-11.15-5.56-22.68-11.3-34.04-16.92-4.56-2.26-9.6-2.28-13.81-.07-4.12,2.16-6.88,6.2-7.58,11.07-.51,3.5-.41,7.03-.33,10.43.05,1.77.09,3.59.05,5.36v.04c-.03,1.17.41,1.98,1.32,2.43,1.42.69,2.83,1.39,4.27,2.09l3.4,1.67.51-2.07c.03-.12.05-.21.07-.27.05-.19.12-.42.12-.72v-2.51c0-4.37.02-8.74.01-13.11,0-2.66.85-4.66,2.41-5.62,1.55-.96,3.7-.84,6.06.33l50.31,25.05c1.04.52,1.44,1.03,1.46,1.31.02.29-.31.88-1.3,1.56-2.23,1.54-4.47,3.08-6.71,4.61-5.59,3.84-11.37,7.8-16.99,11.8-2.58,1.83-4.79,2-7.64.56-16.48-8.3-33.27-16.66-49.51-24.74l-9.38-4.67c-2.36-1.17-4.9-1.66-7.56-1.45C5.83,25.43.08,31.85.06,40.07c-.01,4.86,0,9.79,0,14.57.02,8.44.04,17.16-.07,25.74-.09,7.39,3.12,12.57,9.8,15.84,16.73,8.18,33.47,16.57,50.58,25.17,2.59,1.3,5.13,1.95,7.62,1.95,3.09,0,6.09-1,8.98-3.01,3.94-2.74,7.96-5.51,11.84-8.2,4.11-2.84,8.37-5.78,12.54-8.68,3.64-2.54,5.57-6.22,5.28-10.11-.29-3.9-2.75-7.26-6.74-9.24-7.12-3.51-14.23-7.03-21.35-10.55l-10.1-5c-6.61-3.27-13.23-6.54-19.84-9.81-2.02-.99-3.35-.64-4.11-.16-.73.45-1.6,1.42-1.61,3.45-.01,6.34-.01,12.68-.01,19.02,0,3.95,0,7.91,0,11.87,0,.59,0,2.16,1.68,2.95,1.25.59,2.51,1.22,3.84,1.88.56.28,1.13.56,1.72.86l2.48,1.23v-28.5l6.34,3.16c12.14,6.05,24.7,12.31,37.04,18.49.6.3.98.7,1,1.06.03.38-.3.85-.89,1.25-3.97,2.75-7.95,5.5-11.92,8.24-4.35,3-8.7,6-13.04,9.01-1.93,1.34-3.84,1.46-6.02.37l-15.38-7.68c-12.21-6.09-24.41-12.19-36.62-18.27-2.41-1.2-3.42-2.86-3.39-5.57.05-4.79.04-9.66.03-14.36,0-1.97,0-3.93,0-5.9,0-2.12,0-4.23,0-6.35,0-4.83-.02-9.83.02-14.74.02-2.17.91-3.95,2.44-4.9,1.51-.92,3.45-.92,5.32.01,3.63,1.81,7.26,3.61,10.88,5.42,4.63,2.31,9.26,4.63,13.89,6.94,11.36,5.68,23.11,11.56,34.69,17.3,5.18,2.57,10.45,2.2,15.23-1.07,9.85-6.73,17.87-12.28,25.26-17.46,3.41-2.39,5.23-5.92,5.01-9.69Z"/>
        <path class="cls-1" d="M50.97,123.41c-1.26-.6-2.53-1.24-3.88-1.91-.56-.28-1.13-.57-1.74-.87l-2.48-1.23v5.06c0,1.69,0,3.27,0,4.86,0,1.83-.69,3.19-2.09,4.17-8.27,5.75-16.71,11.56-24.87,17.19l-1.35.93c-1,.69-1.92.77-2.99.25-1.11-.53-1.84-1.33-1.84-3.49.01-4.22,0-8.52-.02-12.67-.03-8.66-.06-17.61.15-26.4.09-3.71-.55-7.73-5.98-9.43l-.15-.05c-.87-.27-1.86-.59-2.77.09C0,100.62.01,101.82.01,102.53c.05,13.22.05,27.77.03,45.79,0,5.56,2.27,9.59,6.79,11.98,1.97,1.04,3.98,1.56,6,1.56,2.65,0,5.31-.9,7.88-2.69,2.08-1.45,4.16-2.9,6.24-4.36,5.72-4.01,11.64-8.16,17.58-12.03,5.99-3.89,8.62-9.36,8.06-16.73-.05-.64-.15-1.96-1.62-2.66Z"/>
      </g>
      <text class="cls-3" transform="translate(141.25 118.03)"><tspan x="0" y="0">Fro</tspan><tspan class="cls-2" x="220.76" y="0">o</tspan><tspan x="301.59" y="0">xi</tspan></text>
    </g>
  </g>
</svg>